<svg width="760" height="160" viewBox="0 0 760 160" fill="none" xmlns="http://www.w3.org/2000/svg">
  <!-- Open Loom horizontal lockup: glyph + wordmark. Dark-on-light default. -->
  <defs>
    <linearGradient id="g" x1="8" y1="8" x2="152" y2="152" gradientUnits="userSpaceOnUse">
      <stop offset="0" stop-color="#7A6CFF"/>
      <stop offset="1" stop-color="#5344E0"/>
    </linearGradient>
  </defs>
  <path d="M80 8c33.6 0 50.3 0 61.4 9a40 40 0 0 1 5.6 5.6c9 11.1 9 27.8 9 61.4s0 50.3-9 61.4a40 40 0 0 1-5.6 5.6c-11.1 9-27.8 9-61.4 9s-50.3 0-61.4-9a40 40 0 0 1-5.6-5.6c-9-11.1-9-27.8-9-61.4s0-50.3 9-61.4a40 40 0 0 1 5.6-5.6C29.7 8 46.4 8 80 8Z" fill="url(#g)"/>
  <path d="M 108.2 51.7 A 40 40 0 1 0 119.2 80" stroke="#FFFFFF" stroke-width="13.5" stroke-linecap="round" fill="none"/>
  <circle cx="114.7" cy="57.5" r="9.7" fill="#FFFFFF"/>
  <text x="196" y="103" font-family="-apple-system, 'SF Pro Display', 'Helvetica Neue', Arial, sans-serif" font-size="72" font-weight="700" letter-spacing="-1.5" fill="#1D1D1F">Open<tspan fill="#635BFF"> Loom</tspan></text>
</svg>
